<?xml version="1.0" encoding="UTF-8"?>
<svg xmlns="http://www.w3.org/2000/svg" xmlns:xlink="http://www.w3.org/1999/xlink" width="16pt" height="16pt" viewBox="0 0 16 16" version="1.1">
<g id="surface1">
<path style=" stroke:none;fill-rule:nonzero;fill:rgb(0%,0%,0%);fill-opacity:1;" d="M 10.332031 9.332031 L 9.808594 9.332031 L 9.621094 9.152344 C 10.273438 8.394531 10.667969 7.40625 10.667969 6.332031 C 10.667969 3.941406 8.726562 2 6.332031 2 C 3.941406 2 2 3.941406 2 6.332031 C 2 8.726562 3.941406 10.667969 6.332031 10.667969 C 7.40625 10.667969 8.394531 10.273438 9.152344 9.621094 L 9.332031 9.808594 L 9.332031 10.332031 L 12.667969 13.660156 L 13.660156 12.667969 Z M 6.332031 9.332031 C 4.671875 9.332031 3.332031 7.992188 3.332031 6.332031 C 3.332031 4.671875 4.671875 3.332031 6.332031 3.332031 C 7.992188 3.332031 9.332031 4.671875 9.332031 6.332031 C 9.332031 7.992188 7.992188 9.332031 6.332031 9.332031 Z M 6.332031 9.332031 "/>
</g>
</svg>
